<svg width="223" height="84" viewBox="0 0 223 84" fill="none" xmlns="http://www.w3.org/2000/svg">
<path d="M130.812 61.1213C125.458 61.4478 122.215 56.4582 124.461 51.3953C125.254 49.6069 126.417 48.0717 128.09 47.0275C130.607 45.4563 133.303 44.6137 136.32 45.3879C138.32 45.9016 139.865 46.8618 140.296 49.0452C140.421 49.6777 140.644 49.7881 141.088 49.2288C141.728 48.4198 142.322 47.5376 143.104 46.8858C143.934 46.1945 144.898 45.5331 145.915 45.2222C147.769 44.6557 149.128 45.6843 149.354 47.5868C149.406 48.0237 149.349 48.4726 149.4 48.9095C149.419 49.0752 149.574 49.2552 149.717 49.3632C149.771 49.4041 150.001 49.2924 150.091 49.1952C150.543 48.7091 150.981 48.2098 151.413 47.7068C152.459 46.4873 153.81 45.7444 155.331 45.3207C157.906 44.6029 160.442 45.4107 160.456 48.6215C160.456 48.8291 160.573 49.0356 160.636 49.242C160.83 49.1532 161.062 49.1052 161.214 48.9671C162.085 48.1725 162.888 47.2963 163.807 46.5618C165.179 45.4659 166.756 44.9246 168.559 45.1142C170.286 45.2955 171.516 46.3589 171.496 48.0969C171.48 49.3932 171.123 50.7004 170.799 51.9727C170.49 53.1814 170.019 54.3493 169.637 55.5399C169.603 55.6444 169.692 55.7896 169.724 55.9156C169.854 55.8748 170.03 55.8724 170.106 55.7848C170.492 55.3395 170.886 54.8954 171.212 54.4069C171.686 53.6963 172.109 53.3086 172.931 54.0624C173.462 54.5497 173.67 54.0312 173.734 53.5523C174.138 50.5731 175.781 48.415 178.225 46.767C180.487 45.2402 182.996 44.7457 185.634 45.2126C188.257 45.6771 190.284 47.0503 191.272 49.6549C191.515 50.2935 191.807 50.4459 192.313 49.8037C193.178 48.7055 194.034 47.576 195.049 46.6254C195.723 45.9952 196.617 45.4779 197.504 45.2198C199.366 44.6761 200.709 45.6699 200.946 47.576C200.982 47.8665 200.934 48.1689 200.98 48.457C201.019 48.7115 201.135 48.9539 201.216 49.2012C201.448 49.0332 201.703 48.8891 201.906 48.6923C202.649 47.9757 203.334 47.1955 204.116 46.5257C205.152 45.6399 206.397 45.1766 207.768 45.1118C209.703 45.0206 210.847 45.82 211.431 47.63C211.802 48.7823 211.784 48.7643 212.654 47.8665C213.268 47.2327 213.878 46.563 214.603 46.0792C215.26 45.6423 216.047 45.2882 216.821 45.1562C218.605 44.8513 219.702 45.6795 219.908 47.4656C219.998 48.247 219.909 49.0944 219.7 49.8554C219.231 51.5562 218.628 53.221 218.098 54.9062C218.016 55.1667 218.026 55.4559 217.995 55.732C218.269 55.5519 218.585 55.4127 218.805 55.1823C219.109 54.8654 219.362 54.4933 219.599 54.12C220.052 53.4058 220.469 53.5523 220.994 54.0684C222.034 55.0898 222.151 55.2951 221.269 56.4846C220.397 57.6609 219.384 58.7423 218.354 59.7878C217.901 60.2475 217.292 60.6124 216.686 60.8584C214.464 61.7611 212.581 60.5296 212.576 58.1422C212.574 57.2744 212.808 56.397 213.01 55.5411C213.213 54.6829 213.526 53.8523 213.754 52.9989C213.803 52.8141 213.695 52.5884 213.659 52.3808C213.495 52.4984 213.27 52.58 213.179 52.7385C212.774 53.4526 212.241 53.3866 211.722 52.9533C211.159 52.484 210.103 52.5128 210.108 51.4205C210.108 51.3497 209.668 51.1889 209.455 51.2201C208.276 51.3893 207.26 51.1457 206.433 50.2455C205.848 49.6093 205.207 49.7521 204.7 50.3043C203.656 51.4433 202.564 52.5632 201.686 53.8259C200.427 55.6396 199.272 57.536 198.21 59.4721C197.639 60.5116 196.984 60.9401 195.774 60.916C192.217 60.8452 192.645 61.0625 193.642 58.0281C194.309 55.9997 194.904 53.9484 195.511 51.9019C195.567 51.7098 195.487 51.477 195.47 51.2633C195.27 51.3965 195.042 51.5022 194.879 51.6702C194.728 51.8238 194.655 52.0495 194.535 52.2343C193.838 53.2978 193.819 53.341 192.536 52.8069C191.848 52.52 191.641 52.7313 191.463 53.3626C191.224 54.2088 190.983 55.0814 190.567 55.8484C188.013 60.544 182.632 61.7251 178.527 60.7948C176.701 60.3819 175.237 59.1624 174.292 57.4484C173.589 56.1701 173.588 56.2001 172.61 57.4016C172.053 58.0846 171.448 58.7399 170.797 59.3341C170.312 59.777 169.746 60.1527 169.167 60.4707C168.022 61.1021 166.741 61.4538 165.574 60.7516C164.358 60.0194 164.253 58.6667 164.412 57.392C164.538 56.3777 164.838 55.3815 165.101 54.3889C165.421 53.1802 165.813 51.9895 166.104 50.7736C166.177 50.4663 165.985 50.0966 165.915 49.7545C165.569 49.8398 165.131 49.8206 164.895 50.0282C164.011 50.8012 163.051 51.549 162.381 52.4888C160.712 54.827 159.138 57.2372 157.626 59.6785C157.096 60.5332 156.545 60.9221 155.514 60.9077C151.24 60.8464 152.139 61.1897 152.991 57.7425C153.379 56.1749 154.002 54.6661 154.458 53.113C154.705 52.2691 154.869 51.3929 154.985 50.5215C155.075 49.853 154.559 49.5193 154.023 49.9322C153.152 50.6031 152.235 51.2909 151.589 52.1575C149.963 54.3445 148.319 56.547 146.992 58.914C146.093 60.5176 145.018 61.1417 143.282 60.8968C142.919 60.8452 142.543 60.8848 142.173 60.8788C141.502 60.8668 141.222 60.538 141.406 59.8874C141.566 59.3209 141.767 58.7663 141.941 58.2034C142.596 56.0945 143.252 53.9856 143.89 51.8706C143.949 51.6774 143.88 51.4469 143.871 51.2333C143.67 51.3737 143.424 51.4782 143.279 51.663C142.877 52.1779 142.611 53.0169 142.113 53.1778C141.649 53.3266 140.966 52.7277 140.356 52.5356C140.055 52.442 139.525 52.3856 139.393 52.5488C137.343 55.0766 134.371 55.4571 131.464 56.0129C130.994 56.1029 130.544 56.2865 130.084 56.427C130.546 56.739 130.969 57.1951 131.48 57.3344C132.753 57.6789 133.975 57.338 135.102 56.7114C135.615 56.4258 136.088 56.0609 136.555 55.7008C137.64 54.8642 137.704 54.8846 138.794 55.582C139.358 55.9432 139.447 56.2841 139.094 56.8327C137.609 59.1372 135.467 60.4539 132.802 60.9605C132.152 61.0841 131.475 61.0721 130.812 61.1213ZM186.146 51.9223C186.072 51.9007 185.998 51.8791 185.925 51.8574C185.892 51.4193 185.893 50.9752 185.82 50.5443C185.642 49.5133 185.385 48.5254 184.212 48.1377C182.978 47.7296 182.071 48.247 181.282 49.128C179.332 51.3077 179.096 53.8919 179.717 56.5626C180.09 58.1734 181.768 58.8167 183.23 57.9669C183.943 57.5528 184.658 56.8447 184.967 56.1041C185.521 54.7766 185.77 53.3242 186.147 51.9235L186.146 51.9223ZM130.221 53.5114C131.486 52.9797 132.709 52.6316 133.733 51.9751C134.346 51.5814 134.822 50.7592 135.044 50.0342C135.426 48.7859 134.595 48.0717 133.317 48.3898C131.441 48.8567 129.748 50.7616 129.622 52.6304C129.606 52.8621 129.942 53.1166 130.222 53.5114H130.221Z" fill="black"/>
<path d="M52.6789 46.4393C52.7257 44.9006 52.8051 42.7676 52.8531 40.6347C52.9012 38.4958 52.2379 36.6221 50.8679 34.9333C49.5244 33.2769 48.1172 31.6121 47.1186 29.7505C44.9627 25.7319 45.0769 21.7037 47.8095 17.9048C51.5757 12.6691 58.7439 13.0232 61.9561 18.6058C64.4232 22.8932 63.975 27.0714 61.3312 31.0912C60.4419 32.4427 59.4025 33.7018 58.3594 34.9453C56.9702 36.6017 56.2564 38.431 56.3669 40.6227C56.6601 46.4297 56.8873 52.2392 57.136 58.0486C57.2045 59.6666 57.2322 61.2882 57.3175 62.9049C57.398 64.4485 57.4965 65.9921 57.6504 67.5297C57.7597 68.6195 57.8751 68.6592 58.8713 68.1538C63.2491 65.9321 67.2496 63.1762 70.8259 59.813C71.2573 59.4073 71.7945 59.1156 72.2836 58.7699C71.9183 59.2225 71.5806 59.7014 71.1816 60.1227C67.6534 63.8412 63.695 67.0292 59.1946 69.5126C58.2248 70.0479 57.8823 70.6348 57.9652 71.7811C58.1719 74.6426 58.2164 77.5185 58.262 80.3896C58.2981 82.633 56.9546 83.9581 54.7266 83.9989C52.3412 84.0433 50.7333 82.7602 50.6913 80.5588C50.6528 78.576 50.8523 76.5883 50.928 74.6018C50.9725 73.4471 50.8078 73.2875 49.6902 73.3715C49.2504 73.4051 48.8142 73.5095 48.3792 73.5924C41.6147 74.8875 34.9837 74.3809 28.4836 72.128C28.0654 71.9828 27.6545 71.8159 27.2459 71.6467C27.1125 71.5915 26.9971 71.4966 26.8733 71.4186C27.0512 71.3742 27.2375 71.2746 27.4057 71.2986C27.6953 71.3406 27.9705 71.4666 28.2565 71.5447C32.4961 72.6993 36.8115 73.3319 41.2037 72.973C43.9977 72.7449 46.7785 72.3104 49.546 71.8519C51.0686 71.5999 51.0722 71.493 51.2008 70.0227C51.3474 68.3363 51.4868 66.6487 51.5565 64.9575C51.5949 64.0212 51.4868 63.079 51.4447 62.1392C50.5903 62.492 49.689 62.7633 48.8899 63.2146C46.3567 64.6466 43.6648 65.7076 40.8264 66.2478C31.8064 67.9666 24.1382 65.6428 18.1958 58.4459C14.1677 53.5679 13.1474 47.9457 14.021 41.847C14.5077 38.4478 15.7527 35.3186 17.4123 32.3371C17.5601 32.0718 17.8461 31.8822 18.0672 31.6565C18.0624 31.941 18.0912 32.2303 18.0468 32.5075C17.8173 33.9575 17.4495 35.3967 17.3474 36.855C16.9316 42.7893 18.906 47.9913 22.4799 52.6509C26.6354 58.0702 32.2125 61.2173 38.9145 62.1944C42.6374 62.7369 46.4396 62.7189 50.1361 61.6074C51.8473 61.0925 51.8761 61.1237 51.9747 59.3809C52.209 55.2651 52.4253 51.1481 52.6813 46.4357L52.6789 46.4393Z" fill="black"/>
<path d="M101.117 69.1405C99.5877 68.9208 98.0495 68.7516 96.5329 68.4683C95.0248 68.1862 93.8159 67.292 92.7752 66.2334C90.683 64.1064 90.5496 60.8128 92.5781 58.6259C93.4565 57.6789 94.5801 56.7943 95.7686 56.3273C98.976 55.0694 102.287 55.1535 105.543 56.2745C106.162 56.487 106.717 56.8891 107.291 57.2216C107.811 57.524 108.012 57.9321 107.669 58.5047C107.519 58.7567 107.414 59.0364 107.285 59.3005C106.526 60.8404 106.543 60.766 104.85 60.3711C102.307 59.777 99.7343 59.6294 97.1999 60.4504C96.0763 60.814 94.728 61.1885 94.7832 62.6397C94.8373 64.0452 96.1832 64.4761 97.3092 64.7846C101.45 65.9201 105.373 65.4544 108.93 62.9182C112.138 60.6304 114.356 57.5264 116.168 54.102C116.291 53.868 116.287 53.5667 116.341 53.2954C116.02 53.3578 115.64 53.3314 115.385 53.4971C112.986 55.0538 110.332 55.4355 107.533 55.3407C101.158 55.1235 95.7446 50.3367 96.5966 42.6128C97.6782 32.8088 106.483 24.2327 118.548 25.2722C120.708 25.4582 122.721 26.272 124.526 27.4759C126.695 28.9223 127.818 31.7154 127.246 34.0163C126.562 36.7698 123.962 38.0697 121.351 36.9642C119.42 36.1468 118.803 33.3634 120.214 31.7166C120.494 31.3901 120.884 31.1452 121.255 30.91C121.971 30.4574 121.7 30.1238 121.152 29.8069C118.844 28.4734 116.36 28.3101 113.852 28.9499C108.013 30.4406 104.905 34.6417 103.144 40.0334C102.448 42.1615 102.378 44.376 102.928 46.5762C103.984 50.7976 107.402 52.3832 111.706 51.5478C114.791 50.9488 117.417 49.2408 118.9 46.4465C119.797 44.7565 120.952 44.3232 122.609 44.3724C122.978 44.3832 123.349 44.358 123.719 44.3448C124.52 44.3148 124.792 44.6593 124.552 45.4347C123.813 47.8233 123.239 50.2743 122.33 52.598C120.22 57.9958 117.017 62.6181 112.051 65.8433C108.742 67.9918 105.111 69.0769 101.117 69.1393V69.1405Z" fill="black"/>
<path d="M30.9592 19.6044C30.9592 24.4548 30.9784 29.3052 30.9472 34.1555C30.9376 35.6223 30.815 37.0903 30.672 38.551C30.6443 38.8307 30.1961 39.3312 30.0903 39.2952C29.7346 39.1752 29.2768 38.9159 29.171 38.6038C28.9872 38.0673 28.9956 37.4515 28.9956 36.8682C28.9992 26.8002 29.0052 16.7321 29.0352 6.66405C29.0413 4.75439 29.123 2.84352 29.2491 0.938659C29.2708 0.61218 29.6914 0.312106 29.9281 3.05176e-05C30.1877 0.291702 30.6311 0.559367 30.6744 0.879845C30.839 2.11375 30.9424 3.36565 30.9484 4.61035C30.976 9.60717 30.9604 14.6052 30.9592 19.6032V19.6044Z" fill="black"/>
<path d="M41.7181 19.6248C41.7181 25.2962 41.7277 30.9676 41.7073 36.6389C41.7049 37.4395 41.5859 38.2461 41.4405 39.0347C41.4068 39.2184 41.0367 39.4668 40.8288 39.4596C40.5825 39.4524 40.1763 39.2388 40.1318 39.0479C39.9167 38.1225 39.668 37.1731 39.668 36.2332C39.6728 27.3955 39.7184 18.5577 39.7725 9.71999C39.7881 7.14296 39.8626 4.56593 39.9263 1.99011C39.9396 1.47878 39.9696 0.951854 40.1138 0.468136C40.1727 0.272488 40.5572 0.0648375 40.7964 0.0600364C41.0391 0.0552352 41.4585 0.255684 41.5006 0.436928C41.6496 1.07188 41.7289 1.73684 41.7313 2.391C41.7469 8.1356 41.7409 13.8814 41.7409 19.626C41.7337 19.626 41.7277 19.626 41.7205 19.626L41.7181 19.6248Z" fill="black"/>
<path d="M36.5207 19.8853C36.5207 24.8845 36.5291 29.8837 36.5159 34.8829C36.5123 36.058 36.451 37.2343 36.3981 38.4082C36.3705 39.0167 36.0256 39.4416 35.4175 39.288C35.1111 39.2112 34.7157 38.7551 34.6869 38.4418C34.5679 37.1263 34.5355 35.7999 34.5379 34.4772C34.5571 23.8198 34.5907 13.1636 34.622 2.50624C34.6232 2.06574 34.6304 1.62403 34.6412 1.18352C34.6544 0.662596 34.6436 0.0720518 35.3382 0.0108369C36.1049 -0.0563795 36.3609 0.51376 36.4053 1.14151C36.4774 2.16776 36.5123 3.19761 36.5135 4.22626C36.5231 9.44633 36.5183 14.6652 36.5195 19.8853H36.5207Z" fill="black"/>
<path d="M79.9253 42.8733C79.8917 45.023 78.4773 46.4465 76.462 46.3553C74.4888 46.2665 73.0407 44.7301 73.0323 42.716C73.0263 41.0272 74.8012 39.2652 76.4728 39.3C78.4148 39.3408 79.9542 40.9336 79.9241 42.8721L79.9253 42.8733Z" fill="black"/>
<path d="M0.00190003 31.2929C-0.0317479 26.7509 1.17116 21.5609 3.35107 16.5797C3.52772 16.1764 3.74883 15.7923 3.97235 15.4118C4.02162 15.3278 4.16943 15.3014 4.27158 15.2473C4.30282 15.3842 4.38814 15.5354 4.3545 15.6542C4.2163 16.1488 4.05287 16.6373 3.88102 17.121C1.1976 24.714 0.512627 32.4763 2.19622 40.3539C2.75983 42.9933 3.85819 45.5211 4.72342 48.0957C4.86402 48.5122 5.07672 48.9047 5.22333 49.32C5.26419 49.4341 5.18728 49.5889 5.16325 49.7257C5.0599 49.6897 4.91329 49.6849 4.85922 49.6129C4.68497 49.3765 4.53475 49.1208 4.39175 48.8639C1.51365 43.6799 -0.0377567 38.1501 0.000698058 31.2929H0.00190003Z" fill="black"/>
<path d="M219.797 41.9418C218.066 41.9358 216.938 40.7812 216.942 39.0155C216.946 37.1227 218.255 35.7987 220.098 35.8252C221.831 35.8504 222.823 36.9678 222.792 38.8559C222.762 40.6959 221.547 41.9466 219.797 41.9418Z" fill="black"/>
<path d="M24.5661 46.3949C22.9714 46.4249 21.3791 44.8922 21.3827 43.3306C21.3863 41.8638 22.9474 40.3322 24.4038 40.3671C26.0514 40.4067 27.4562 41.6862 27.5247 43.2093C27.6028 44.9402 26.2821 46.3637 24.5661 46.3961V46.3949Z" fill="black"/>
<path d="M84.6732 36.975C83.8476 36.969 82.8815 35.9752 82.8382 35.0894C82.7962 34.2084 83.8885 33.1941 84.8859 33.1893C85.9158 33.1833 86.62 33.9251 86.6188 35.0126C86.6188 36.046 85.6887 36.9822 84.672 36.975H84.6732Z" fill="black"/>
</svg>
