<svg width="24" height="24" viewBox="0 0 24 24" fill="none" xmlns="http://www.w3.org/2000/svg">
<path d="M12.4631 21.6928C12.3261 21.6361 12.2089 21.54 12.1265 21.4166C12.044 21.2933 12 21.1483 12 21V17.25H4.5C4.10218 17.25 3.72064 17.0919 3.43934 16.8106C3.15804 16.5293 3 16.1478 3 15.75V8.24998C3 7.85216 3.15804 7.47063 3.43934 7.18932C3.72064 6.90802 4.10218 6.74998 4.5 6.74998H12V2.99998C11.9999 2.85156 12.0438 2.70644 12.1262 2.58299C12.2086 2.45955 12.3258 2.36333 12.4629 2.30651C12.6 2.2497 12.7509 2.23485 12.8965 2.26383C13.042 2.29282 13.1757 2.36435 13.2806 2.46936L22.2806 11.4694C22.3504 11.539 22.4057 11.6217 22.4434 11.7128C22.4812 11.8038 22.5006 11.9014 22.5006 12C22.5006 12.0985 22.4812 12.1961 22.4434 12.2872C22.4057 12.3782 22.3504 12.461 22.2806 12.5306L13.2806 21.5306C13.1757 21.6355 13.042 21.7068 12.8965 21.7357C12.751 21.7646 12.6002 21.7496 12.4631 21.6928Z" fill="#B4463C"/>
</svg>
