<svg width="24" height="24" viewBox="0 0 24 24" fill="none" xmlns="http://www.w3.org/2000/svg">
<path d="M21 8.24998V15.75C21 16.1478 20.8419 16.5293 20.5606 16.8106C20.2793 17.0919 19.8978 17.25 19.5 17.25H12V21C12.0001 21.1484 11.9562 21.2935 11.8738 21.417C11.7914 21.5404 11.6742 21.6366 11.5371 21.6934C11.4 21.7503 11.2491 21.7651 11.1035 21.7361C10.9579 21.7071 10.8242 21.6356 10.7194 21.5306L1.71935 12.5306C1.64962 12.461 1.5943 12.3782 1.55656 12.2872C1.51882 12.1961 1.49939 12.0985 1.49939 12C1.49939 11.9014 1.51882 11.8038 1.55656 11.7128C1.5943 11.6217 1.64962 11.539 1.71935 11.4694L10.7194 2.46936C10.8242 2.36435 10.9579 2.29282 11.1035 2.26383C11.2491 2.23485 11.4 2.2497 11.5371 2.30651C11.6742 2.36333 11.7914 2.45955 11.8738 2.58299C11.9562 2.70644 12.0001 2.85156 12 2.99998V6.74998H19.5C19.8978 6.74998 20.2793 6.90802 20.5606 7.18932C20.8419 7.47063 21 7.85216 21 8.24998Z" fill="#B4463C"/>
</svg>
