<svg width="24" height="24" viewBox="0 0 24 24" fill="none" xmlns="http://www.w3.org/2000/svg">
<path d="M9 17.625V18.375C9 19.1706 9.31607 19.9337 9.87868 20.4963C10.4413 21.0589 11.2044 21.375 12 21.375C12.7956 21.375 13.5587 21.0589 14.1213 20.4963C14.6839 19.9337 15 19.1706 15 18.375V17.625" stroke="#343330" stroke-width="3" stroke-linecap="round" stroke-linejoin="round"/>
<path d="M17.25 2.25C18.6983 3.17411 19.873 4.46888 20.6522 6" stroke="#343330" stroke-width="3" stroke-linecap="round" stroke-linejoin="round"/>
<path d="M3.34778 6C4.127 4.46888 5.30168 3.17411 6.74997 2.25" stroke="#343330" stroke-width="3" stroke-linecap="round" stroke-linejoin="round"/>
<path d="M4.87505 17.625C4.73577 17.6248 4.59929 17.5858 4.48093 17.5124C4.36256 17.439 4.26697 17.334 4.20488 17.2094C4.14278 17.0847 4.11663 16.9452 4.12936 16.8065C4.14208 16.6678 4.19318 16.5354 4.27693 16.4241C5.04849 15.4209 5.98505 13.5562 6.00005 10.5C6.00005 8.9087 6.63219 7.38258 7.75741 6.25736C8.88263 5.13214 10.4088 4.5 12.0001 4.5C13.5914 4.5 15.1175 5.13214 16.2427 6.25736C17.3679 7.38258 18.0001 8.9087 18.0001 10.5C18.0151 13.5562 18.9516 15.4209 19.7204 16.4241C19.804 16.5352 19.855 16.6673 19.8679 16.8058C19.8807 16.9442 19.8548 17.0835 19.793 17.2081C19.7313 17.3327 19.6361 17.4377 19.5182 17.5113C19.4002 17.5849 19.2641 17.6243 19.1251 17.625H4.87505Z" stroke="#343330" stroke-width="3" stroke-linecap="round" stroke-linejoin="round"/>
</svg>
