<svg width="16" height="16" viewBox="0 0 16 16" fill="none" xmlns="http://www.w3.org/2000/svg">
<path d="M13 3.5H3C2.44772 3.5 2 3.94772 2 4.5V11.5C2 12.0523 2.44772 12.5 3 12.5H13C13.5523 12.5 14 12.0523 14 11.5V4.5C14 3.94772 13.5523 3.5 13 3.5Z" stroke="#6C0D0A" stroke-width="2" stroke-linecap="round" stroke-linejoin="round"/>
<path d="M2 7.5H6C6 8.03043 6.21071 8.53914 6.58579 8.91421C6.96086 9.28929 7.46957 9.5 8 9.5C8.53043 9.5 9.03914 9.28929 9.41421 8.91421C9.78929 8.53914 10 8.03043 10 7.5H14" stroke="#6C0D0A" stroke-width="2" stroke-linecap="round" stroke-linejoin="round"/>
<path d="M2 5.5H14" stroke="#6C0D0A" stroke-width="2" stroke-linecap="round" stroke-linejoin="round"/>
</svg>
