<svg width="32" height="32" viewBox="0 0 32 32" fill="none" xmlns="http://www.w3.org/2000/svg">
<path d="M26 11H6C5.44772 11 5 11.4477 5 12V26C5 26.5523 5.44772 27 6 27H26C26.5523 27 27 26.5523 27 26V12C27 11.4477 26.5523 11 26 11Z" stroke="#6C0D0A" stroke-width="2" stroke-linecap="round" stroke-linejoin="round"/>
<path d="M16 17.5625C16.7939 17.5625 17.4375 18.2061 17.4375 19C17.4375 19.7939 16.7939 20.4375 16 20.4375C15.2061 20.4375 14.5625 19.7939 14.5625 19C14.5625 18.2061 15.2061 17.5625 16 17.5625Z" fill="#343330" stroke="#6C0D0A" stroke-width="0.125"/>
<path d="M11 11V7C11 5.67392 11.5268 4.40215 12.4645 3.46447C13.4021 2.52678 14.6739 2 16 2C17.3261 2 18.5979 2.52678 19.5355 3.46447C20.4732 4.40215 21 5.67392 21 7V11" stroke="#6C0D0A" stroke-width="2" stroke-linecap="round" stroke-linejoin="round"/>
</svg>
