<svg width="27" height="16" viewBox="0 0 27 16" fill="none" xmlns="http://www.w3.org/2000/svg">
<path d="M17.5 7.875C17.5 8.74029 17.2434 9.58615 16.7627 10.3056C16.2819 11.0251 15.5987 11.5858 14.7992 11.917C13.9998 12.2481 13.1201 12.3347 12.2715 12.1659C11.4228 11.9971 10.6433 11.5804 10.0314 10.9686C9.41955 10.3567 9.00287 9.57719 8.83406 8.72852C8.66525 7.87985 8.75189 7.00019 9.08303 6.20076C9.41416 5.40133 9.97492 4.71805 10.6944 4.23732C11.4138 3.75659 12.2597 3.5 13.125 3.5C14.2853 3.5 15.3981 3.96094 16.2186 4.78141C17.0391 5.60188 17.5 6.71468 17.5 7.875ZM26.25 0.875V14.875C26.25 15.1071 26.1578 15.3296 25.9937 15.4937C25.8296 15.6578 25.6071 15.75 25.375 15.75H0.875C0.642936 15.75 0.420376 15.6578 0.256282 15.4937C0.0921872 15.3296 0 15.1071 0 14.875V0.875C0 0.642936 0.0921872 0.420376 0.256282 0.256282C0.420376 0.0921874 0.642936 0 0.875 0H25.375C25.6071 0 25.8296 0.0921874 25.9937 0.256282C26.1578 0.420376 26.25 0.642936 26.25 0.875ZM24.5 5.94453C23.5064 5.65076 22.6022 5.11307 21.8695 4.38045C21.1369 3.64783 20.5992 2.74356 20.3055 1.75H5.94453C5.65076 2.74356 5.11307 3.64783 4.38045 4.38045C3.64783 5.11307 2.74356 5.65076 1.75 5.94453V9.80547C2.74356 10.0992 3.64783 10.6369 4.38045 11.3695C5.11307 12.1022 5.65076 13.0064 5.94453 14H20.3055C20.5992 13.0064 21.1369 12.1022 21.8695 11.3695C22.6022 10.6369 23.5064 10.0992 24.5 9.80547V5.94453Z" fill="#343330"/>
</svg>
