<svg width="18" height="18" viewBox="0 0 18 18" fill="none" xmlns="http://www.w3.org/2000/svg">
<path d="M6.1875 16.3125C6.80882 16.3125 7.3125 15.8088 7.3125 15.1875C7.3125 14.5662 6.80882 14.0625 6.1875 14.0625C5.56618 14.0625 5.0625 14.5662 5.0625 15.1875C5.0625 15.8088 5.56618 16.3125 6.1875 16.3125Z" fill="#343330"/>
<path d="M13.5 16.3125C14.1213 16.3125 14.625 15.8088 14.625 15.1875C14.625 14.5662 14.1213 14.0625 13.5 14.0625C12.8787 14.0625 12.375 14.5662 12.375 15.1875C12.375 15.8088 12.8787 16.3125 13.5 16.3125Z" fill="#343330"/>
<path d="M1.125 2.25H2.8125L5.39648 11.5509C5.46225 11.7878 5.60379 11.9966 5.79946 12.1454C5.99513 12.2943 6.23417 12.3749 6.48 12.375H13.4297C13.6756 12.375 13.9148 12.2945 14.1107 12.1457C14.3065 11.9968 14.4481 11.7879 14.5139 11.5509L16.3125 5.0625H3.59367" stroke="#343330" stroke-width="2" stroke-linecap="round" stroke-linejoin="round"/>
</svg>
