<svg width="24" height="24" viewBox="0 0 24 24" fill="none" xmlns="http://www.w3.org/2000/svg">
<path d="M12 15C14.0711 15 15.75 13.3211 15.75 11.25C15.75 9.17893 14.0711 7.5 12 7.5C9.92893 7.5 8.25 9.17893 8.25 11.25C8.25 13.3211 9.92893 15 12 15Z" stroke="currentColor" stroke-width="2" stroke-linecap="round" stroke-linejoin="round"/>
<path d="M9.75 3.28126C11.2255 2.89819 12.7745 2.89819 14.25 3.28126" stroke="currentColor" stroke-width="2" stroke-linecap="round" stroke-linejoin="round"/>
<path d="M3.32715 9.59062C3.73342 8.12158 4.50786 6.78052 5.57715 5.69437" stroke="currentColor" stroke-width="2" stroke-linecap="round" stroke-linejoin="round"/>
<path d="M14.25 20.7188C12.7745 21.1018 11.2255 21.1018 9.75 20.7188" stroke="currentColor" stroke-width="2" stroke-linecap="round" stroke-linejoin="round"/>
<path d="M18.4229 5.69345C19.4924 6.78013 20.2669 8.12187 20.6729 9.59158" stroke="currentColor" stroke-width="2" stroke-linecap="round" stroke-linejoin="round"/>
<path d="M20.6738 14.4094C20.2144 16.0602 19.2933 17.5456 18.0188 18.6909C17.4545 17.5794 16.5935 16.6459 15.5311 15.9938C14.4687 15.3418 13.2466 14.9966 12 14.9966C10.7535 14.9966 9.53135 15.3418 8.46899 15.9938C7.40663 16.6459 6.54558 17.5794 5.98129 18.6909C4.70675 17.5456 3.78565 16.0602 3.32629 14.4094" stroke="currentColor" stroke-width="2" stroke-linecap="round" stroke-linejoin="round"/>
</svg>
