<svg width="24" height="24" viewBox="0 0 24 24" fill="none" xmlns="http://www.w3.org/2000/svg">
<path d="M18.5748 19.0172C18.6668 19.1266 18.7256 19.2599 18.7443 19.4016C18.7631 19.5433 18.741 19.6874 18.6806 19.8169C18.6202 19.9464 18.5241 20.056 18.4035 20.1328C18.283 20.2095 18.143 20.2502 18.0001 20.25H2.25007C2.10724 20.25 1.96738 20.2092 1.84696 20.1324C1.72653 20.0556 1.63054 19.946 1.57028 19.8165C1.51001 19.687 1.48797 19.543 1.50676 19.4014C1.52554 19.2598 1.58437 19.1265 1.67632 19.0172C3.07694 17.3503 4.81882 16.1663 6.75476 15.5325C5.57904 14.8002 4.67381 13.705 4.17601 12.4124C3.67821 11.1198 3.61493 9.70031 3.99574 8.36858C4.37655 7.03684 5.18074 5.86537 6.28663 5.03138C7.39253 4.19739 8.73996 3.74628 10.1251 3.74628C11.5102 3.74628 12.8576 4.19739 13.9635 5.03138C15.0694 5.86537 15.8736 7.03684 16.2544 8.36858C16.6352 9.70031 16.5719 11.1198 16.0741 12.4124C15.5763 13.705 14.6711 14.8002 13.4954 15.5325C15.4313 16.1663 17.1732 17.3503 18.5748 19.0172ZM18.4557 5.75534C18.3651 5.79398 18.2829 5.8501 18.214 5.92048C18.1451 5.99087 18.0907 6.07415 18.0539 6.16556C18.0172 6.25698 17.9988 6.35473 17.9999 6.45325C18.0009 6.55176 18.0214 6.6491 18.0601 6.73971C18.5154 7.81026 18.7501 8.96167 18.7501 10.125C18.7501 11.2884 18.5154 12.4398 18.0601 13.5103C17.9819 13.6933 17.9796 13.8999 18.0537 14.0846C18.1278 14.2693 18.2722 14.417 18.4552 14.4952C18.6382 14.5734 18.8448 14.5757 19.0295 14.5016C19.2142 14.4275 19.3619 14.283 19.4401 14.1C19.9746 12.843 20.25 11.491 20.25 10.125C20.25 8.75905 19.9746 7.40709 19.4401 6.15003C19.3619 5.96716 19.2142 5.82286 19.0296 5.74884C18.845 5.67482 18.6386 5.67716 18.4557 5.75534ZM22.1916 4.95471C22.1548 4.86137 22.0997 4.77635 22.0294 4.70471C21.9592 4.63306 21.8752 4.57625 21.7826 4.53762C21.69 4.49899 21.5906 4.47934 21.4903 4.47983C21.3899 4.48031 21.2907 4.50093 21.1985 4.54046C21.1062 4.57999 21.0229 4.63762 20.9533 4.70994C20.8838 4.78227 20.8294 4.86781 20.7935 4.96151C20.7576 5.05521 20.7409 5.15517 20.7443 5.25545C20.7478 5.35573 20.7713 5.45431 20.8135 5.54534C21.4315 6.99308 21.7501 8.55091 21.7501 10.125C21.7501 11.6991 21.4315 13.257 20.8135 14.7047C20.7713 14.7957 20.7478 14.8943 20.7443 14.9946C20.7409 15.0949 20.7576 15.1948 20.7935 15.2885C20.8294 15.3822 20.8838 15.4678 20.9533 15.5401C21.0229 15.6124 21.1062 15.6701 21.1985 15.7096C21.2907 15.7491 21.3899 15.7697 21.4903 15.7702C21.5906 15.7707 21.69 15.7511 21.7826 15.7124C21.8752 15.6738 21.9592 15.617 22.0294 15.5453C22.0997 15.4737 22.1548 15.3887 22.1916 15.2953C22.89 13.6611 23.2501 11.9023 23.2501 10.125C23.2501 8.34779 22.89 6.58897 22.1916 4.95471Z" fill="#B4463C"/>
</svg>
