<svg width="60" height="60" viewBox="0 0 60 60" fill="none" xmlns="http://www.w3.org/2000/svg">
<path d="M55.5 44.0836L35.0039 8.48909C34.4917 7.61704 33.7605 6.89398 32.8828 6.39158C32.0051 5.88918 31.0113 5.62488 30 5.62488C28.9886 5.62488 27.9948 5.88918 27.1171 6.39158C26.2394 6.89398 25.5082 7.61704 24.996 8.48909L4.49995 44.0836C4.00714 44.9271 3.74744 45.8864 3.74744 46.8633C3.74744 47.8402 4.00714 48.7995 4.49995 49.643C5.00557 50.5203 5.73551 51.2473 6.61486 51.7494C7.49421 52.2515 8.49132 52.5105 9.50386 52.5H50.496C51.5078 52.5097 52.5039 52.2502 53.3824 51.7482C54.2608 51.2462 54.99 50.5196 55.4953 49.643C55.9888 48.7999 56.2493 47.8408 56.2501 46.8639C56.2509 45.8871 55.992 44.9275 55.5 44.0836ZM28.125 24.375C28.125 23.8778 28.3225 23.4008 28.6741 23.0492C29.0258 22.6976 29.5027 22.5 30 22.5C30.4972 22.5 30.9741 22.6976 31.3258 23.0492C31.6774 23.4008 31.875 23.8778 31.875 24.375V33.75C31.875 34.2473 31.6774 34.7242 31.3258 35.0759C30.9741 35.4275 30.4972 35.625 30 35.625C29.5027 35.625 29.0258 35.4275 28.6741 35.0759C28.3225 34.7242 28.125 34.2473 28.125 33.75V24.375ZM30 45C29.4437 45 28.8999 44.8351 28.4374 44.526C27.9749 44.217 27.6144 43.7777 27.4015 43.2638C27.1887 42.7499 27.133 42.1844 27.2415 41.6388C27.35 41.0933 27.6179 40.5921 28.0112 40.1988C28.4045 39.8055 28.9057 39.5376 29.4513 39.4291C29.9968 39.3206 30.5623 39.3763 31.0762 39.5891C31.5902 39.802 32.0294 40.1625 32.3385 40.625C32.6475 41.0875 32.8125 41.6313 32.8125 42.1875C32.8125 42.9335 32.5161 43.6488 31.9887 44.1763C31.4612 44.7037 30.7459 45 30 45Z" fill="#B4463C"/>
</svg>
